<?xml version="1.0" encoding="utf-8"?>
<!-- Generator: Adobe Illustrator 16.0.0, SVG Export Plug-In . SVG Version: 6.00 Build 0)  -->
<!DOCTYPE svg PUBLIC "-//W3C//DTD SVG 1.1//EN" "http://www.w3.org/Graphics/SVG/1.1/DTD/svg11.dtd">
<svg version="1.1" id="Calque_1" xmlns="http://www.w3.org/2000/svg" xmlns:xlink="http://www.w3.org/1999/xlink" x="0px" y="0px"
	 width="2065px" height="387px" viewBox="0 0 2065 387" enable-background="new 0 0 2065 387" xml:space="preserve">
<rect fill="#E41C13" width="2065" height="386.809"/>
<g id="Lettres">
	<polygon fill="#FFFFFF" points="404.648,98.856 390.509,131.702 411.751,131.702 340.407,297.729 471.185,297.729 485.129,265.316 
		422.688,265.316 494.267,98.856 	"/>
	<path fill="#FFFFFF" d="M578.049,98.856h-61.273l-14.186,32.846h21.037c0,0-10.652,25.755-18.599,43.287
		C549.208,164.601,572.155,130.158,578.049,98.856z"/>
	<polygon fill="#FFFFFF" points="678.909,131.702 741.554,131.702 755.688,98.856 693.309,98.856 700.058,83.164 660.87,83.164 
		654.141,98.856 605.601,98.856 591.446,131.702 612.688,131.702 541.321,297.729 670.219,297.729 684.344,264.856 621.862,264.856 
		646.002,208.597 708.889,208.597 721.015,180.323 658.298,180.323 	"/>
	<path fill="#FFFFFF" d="M848.764,98.856c-65.216,0.458-92.882,46.446-107.953,78.671c-43.325,92.172,25.521,119.457,41.212,122.334
		c8.951,1.645,26.962,1.645,35.925,0l5.732,9.734h33.802l-11.382-17.458c25.307-1.648,55.105-36.323,68.172-64.02
		C927.311,200.324,965.58,101.011,848.764,98.856z M872.604,152.272L827.473,257.39l-9.939-16.241L792.614,255l6.125,9.413
		c-21.645,0-18.16-18.007-12.835-28.152l39.374-91.74c4.604-10.359,14.086-14.9,23.486-15.287
		C863.682,128.532,878.245,138.431,872.604,152.272z"/>
	<path fill="#FFFFFF" d="M1106.531,98.856l-64.427,149.886c-11.239,22.178-61.448,20.159-47.327-8.172l60.866-141.714h-85.298
		l-14.137,32.846h21.059l-41.479,96.58c-16.664,36.485,8.161,70.147,61.944,70.534c55.409,0.443,73.237-34.049,79.109-48.324
		l65.086-151.635H1106.531z"/>
	<polygon fill="#FFFFFF" points="1164.455,98.856 1150.343,131.702 1171.463,131.702 1100.35,297.729 1165.676,297.729 
		1251.109,98.856 	"/>
	<path fill="#FFFFFF" d="M1430.781,172.253c10.458-26.87,3.356-73.397-38.285-73.397h-36.494h-82.43l-14.129,32.846h21.331
		l-71.304,166.028h64.13l29.768-69.192h65.351C1399.093,228.537,1420.66,198.424,1430.781,172.253z M1367.884,170.149
		c-2.958,5.833-11.305,25.267-23.753,25.267h-26.557l27.342-63.714h19.196C1380.406,131.702,1370.781,164.438,1367.884,170.149z"/>
	<polygon fill="#FFFFFF" points="1447.376,131.702 1468.65,131.702 1397.298,297.729 1526.191,297.729 1540.28,264.881 
		1477.774,264.881 1501.942,208.577 1564.803,208.577 1576.97,180.323 1514.252,180.323 1534.863,131.702 1597.463,131.702 
		1611.625,98.856 1461.537,98.856 	"/>
	<polygon fill="#FFFFFF" points="1866.129,98.856 1852.252,131.987 1871.171,131.987 1800.868,297.729 1865.783,297.729 
		1951.212,98.856 	"/>
	<path fill="#FFFFFF" d="M1707.857,235.316c3.972-8.813,11.329-25.356,23.863-25.356h44.727c26.162,0,45.65-23.641,52.117-51.07
		c7.142-30.122-14.504-60.034-41.618-60.034h-36.629h-49.41l-14.503,32.939h72.044c16.355,0,11.305,20.986,8.529,27.094
		c-3.589,7.774-10.845,20.609-23.358,20.609h-38.659c-30.54,0-51.515,30.185-62.392,56.559l-26.72,61.672h156.216l14.508-32.938
		h-91.704C1694.868,264.791,1706.344,238.69,1707.857,235.316z"/>
</g>
</svg>
